<svg width="25" height="25" viewBox="0 0 25 25" fill="none" xmlns="http://www.w3.org/2000/svg">
<path d="M18.4164 17.3854C17.1075 18.812 15.4483 20.5123 13.4371 22.4873C13.437 22.4874 13.4369 22.4876 13.4367 22.4877L12.0513 23.8415L10.6659 22.4877C10.6657 22.4876 10.6656 22.4874 10.6655 22.4873C8.65428 20.5123 6.99505 18.812 5.68619 17.3854C4.37964 15.9614 3.34894 14.6922 2.58861 13.5767C1.8281 12.4608 1.31046 11.4549 1.0202 10.5569C0.726926 9.64949 0.580566 8.72283 0.580566 7.77504C0.580566 5.84267 1.17078 4.2603 2.33438 2.99207C3.49567 1.72636 4.92774 1.09912 6.66447 1.09912C7.62175 1.09912 8.53158 1.31906 9.4 1.7621C10.2695 2.2057 11.0214 2.83149 11.657 3.6465L12.0513 4.15206L12.4456 3.6465C13.0812 2.83149 13.8331 2.2057 14.7026 1.7621C15.571 1.31905 16.4809 1.09912 17.4381 1.09912C19.1749 1.09912 20.6069 1.72636 21.7682 2.99207C22.9318 4.2603 23.522 5.84266 23.522 7.77504C23.522 8.72283 23.3757 9.64949 23.0824 10.5569C22.7921 11.4549 22.2745 12.4608 21.514 13.5767C20.7537 14.6922 19.723 15.9614 18.4164 17.3854Z" fill="black" stroke="black"/>
</svg>
