<svg version="1.1" id="Layer_1" xmlns="http://www.w3.org/2000/svg" xmlns:xlink="http://www.w3.org/1999/xlink" x="0px" y="0px"
	 width="100%" viewBox="0 0 664 508" enable-background="new 0 0 664 508" xml:space="preserve">
<path fill="none" opacity="1.000000" stroke="#000000" stroke-linecap="round" stroke-linejoin="round" stroke-width="2.000000"
	d="
M433.500000,247.000000 
	C436.666656,263.833344 439.888000,280.656616 442.984100,297.502930 
	C445.891541,313.322632 448.517853,329.195099 451.536652,344.993011 
	C455.554871,366.021362 459.754730,387.016022 464.033112,407.993256 
	C466.176514,418.502411 468.570831,428.966827 472.485748,439.005554 
	C472.598572,439.294891 472.359100,439.775024 472.520172,439.984497 
	C481.137695,451.189728 477.666626,463.604828 475.262573,475.451813 
	C473.493011,484.172241 470.816498,492.956970 465.508545,500.506012 
	C464.486908,501.958954 463.715515,503.709259 461.500763,503.492279 
	C458.979462,503.245270 459.561584,500.894958 459.060974,499.478455 
	C453.344269,483.301971 447.461670,467.193604 440.500000,451.500000 
"/>
<path fill="none" opacity="1.000000" stroke="#000000" stroke-linecap="round" stroke-linejoin="round" stroke-width="2.000000"
	d="
M392.000000,107.500000 
	C389.175598,118.657913 388.896210,130.126114 388.059540,141.504379 
	C386.897583,157.306870 385.998505,173.140457 386.521027,188.999313 
	C387.186615,209.198532 383.723877,228.915146 379.440216,248.486908 
	C372.865540,278.526367 364.019073,307.973389 355.480988,337.494507 
	C355.249939,338.293457 355.291901,339.427277 354.000000,339.500000 
"/>
<path fill="none" opacity="1.000000" stroke="#000000" stroke-linecap="round" stroke-linejoin="round" stroke-width="2.000000"
	d="
M654.500000,244.500000 
	C628.816711,244.525818 603.190918,246.505737 577.501282,246.686035 
	C567.856995,246.753723 558.176636,247.397430 548.500244,247.518738 
	C526.666199,247.792435 504.834229,248.260208 482.999695,248.468567 
	C467.306732,248.618317 451.647858,247.633499 435.997711,246.532639 
	C433.015564,246.322861 431.218262,244.827164 429.434845,242.551056 
	C425.647736,237.717712 421.305023,233.361649 416.500000,229.500000 
"/>
<path fill="none" opacity="1.000000" stroke="#000000" stroke-linecap="round" stroke-linejoin="round" stroke-width="2.000000"
	d="
M213.000000,445.500000 
	C213.458679,450.125793 212.181427,451.932281 206.993912,452.437408 
	C197.849014,453.327820 188.670334,454.342468 179.499344,454.408295 
	C146.834351,454.642944 114.164085,454.752136 81.500839,454.418243 
	C56.496635,454.162659 31.500000,453.166687 6.500000,452.500031 
"/>
<path fill="none" opacity="1.000000" stroke="#000000" stroke-linecap="round" stroke-linejoin="round" stroke-width="2.000000"
	d="
M391.000000,61.500000 
	C393.538055,45.915802 395.052795,30.212862 396.528961,14.502722 
	C396.927246,10.263846 395.587952,8.515267 391.009277,8.301405 
	C387.960419,8.158998 385.000000,8.302973 381.479034,8.589471 
	C380.502380,15.280765 379.472839,22.136391 378.506531,29.000919 
	C376.982025,39.830807 375.500000,50.666668 374.000000,61.500000 
	C372.499969,72.333328 370.943420,83.159225 369.516998,94.002243 
	C368.268738,103.491501 367.042480,112.987007 366.046967,122.504913 
	C365.457092,128.144745 365.333344,133.833328 365.000031,139.500000 
"/>
<path fill="none" opacity="1.000000" stroke="#000000" stroke-linecap="round" stroke-linejoin="round" stroke-width="2.000000"
	d="
M391.500000,70.000000 
	C395.239502,79.713905 396.971832,89.977585 399.392548,100.025887 
	C406.200378,128.285049 412.495636,156.667679 419.001587,184.999634 
	C423.326752,203.834839 427.622070,222.677292 432.094330,241.477570 
	C432.412659,242.815720 432.408569,243.833328 432.000000,245.000000 
"/>
<path fill="none" opacity="1.000000" stroke="#000000" stroke-linecap="round" stroke-linejoin="round" stroke-width="2.000000"
	d="
M431.000000,290.500000 
	C432.522003,292.054596 432.440552,294.030304 432.510895,295.999603 
	C433.040710,310.828796 433.705261,325.647980 433.549561,340.500519 
	C433.346832,359.831726 433.715698,379.170135 433.403351,398.498444 
	C433.260529,407.337616 432.826630,416.203705 431.641602,425.019043 
	C431.316467,427.437561 430.235474,427.963745 428.500000,428.500000 
"/>
<path fill="none" opacity="1.000000" stroke="#000000" stroke-linecap="round" stroke-linejoin="round" stroke-width="2.000000"
	d="
M430.500000,287.500000 
	C426.272949,311.314423 425.179749,335.372131 424.372375,359.495728 
	C423.847290,375.185059 423.893951,390.851685 424.642242,406.493195 
	C425.098450,416.029022 425.555267,425.797668 430.500000,434.500000 
"/>
<path fill="none" opacity="1.000000" stroke="#000000" stroke-linecap="round" stroke-linejoin="round" stroke-width="2.000000"
	d="
M294.500000,303.500000 
	C280.399078,314.864899 265.389191,315.838867 248.921219,308.681244 
	C240.741531,305.126038 233.236755,300.339233 225.117416,296.886047 
	C221.667404,298.400452 221.410675,301.826874 220.601151,304.530273 
	C216.508636,318.196899 213.960953,332.165863 214.562744,346.497375 
	C214.881516,354.088989 217.608307,361.343170 218.090851,368.994263 
	C218.837723,380.836304 219.302383,392.633789 218.604202,404.506134 
	C218.218781,411.060425 217.692749,417.549835 216.527924,424.005035 
	C216.102280,426.363892 215.468796,428.860779 213.903244,430.401703 
	C210.975967,433.282928 210.496567,435.939392 212.389969,439.557587 
	C213.074631,440.865936 212.500000,442.833344 212.500000,444.500000 
"/>
<path fill="none" opacity="1.000000" stroke="#000000" stroke-linecap="round" stroke-linejoin="round" stroke-width="2.000000"
	d="
M393.000000,107.500000 
	C394.138489,117.650734 393.351501,127.834389 393.433563,138.000534 
	C393.476624,143.330826 392.625641,148.663284 392.538574,154.000626 
	C392.266846,170.665588 392.341583,187.338089 391.888641,203.996979 
	C391.760284,208.718445 393.615692,211.867447 397.014923,214.480591 
	C401.454010,217.893143 406.000000,221.166672 410.500000,224.500000 
"/>
<path fill="none" opacity="1.000000" stroke="#000000" stroke-linecap="round" stroke-linejoin="round" stroke-width="2.000000"
	d="
M390.000000,61.500000 
	C387.979218,58.284706 388.025452,54.378399 386.492554,51.003376 
	C385.791168,49.459011 386.008270,47.202137 383.298370,46.896763 
	C380.182800,52.181213 379.655243,58.231350 378.589050,64.016411 
	C376.141205,77.297928 374.160675,90.665695 372.002045,104.000336 
	C370.491455,113.331955 369.000427,122.666733 367.499329,131.999893 
	C367.333405,133.031586 367.433441,134.226730 366.000000,134.500000 
"/>
<path fill="none" opacity="1.000000" stroke="#000000" stroke-linecap="round" stroke-linejoin="round" stroke-width="2.000000"
	d="
M158.000000,386.500000 
	C156.293854,391.891846 158.266312,397.216858 158.694656,402.484161 
	C159.666687,414.437042 161.304962,426.382721 164.557068,437.984009 
	C166.029648,443.237213 167.174438,449.154053 174.500290,449.493774 
	C178.832031,449.694641 183.192230,450.210754 187.494553,449.919434 
	C195.801407,449.357025 204.328400,449.695374 212.000000,445.500000 
"/>
<path fill="none" opacity="1.000000" stroke="#000000" stroke-linecap="round" stroke-linejoin="round" stroke-width="2.000000"
	d="
M308.000000,190.250000 
	C310.045624,185.860229 306.847107,182.253738 305.264374,179.118958 
	C298.659424,166.037018 287.889771,157.927597 272.991272,156.597672 
	C264.885834,155.874115 257.013947,157.954010 249.513977,161.034042 
	C243.613831,163.457108 238.127213,166.725052 233.025879,170.534653 
	C227.144943,174.926437 225.122757,180.837326 227.000000,188.000000 
"/>
<path fill="none" opacity="1.000000" stroke="#000000" stroke-linecap="round" stroke-linejoin="round" stroke-width="2.000000"
	d="
M303.500000,293.500000 
	C309.851196,281.911163 307.123901,273.447235 299.001862,268.000000 
	C298.584503,269.166656 298.262665,270.182617 298.944427,271.528168 
	C301.017670,275.619934 300.758179,280.137054 300.429962,284.494720 
	C299.917908,291.293427 295.310883,295.222107 289.472137,297.426239 
	C277.331421,302.009247 264.776093,303.666931 252.018112,300.428650 
	C245.500015,298.774200 239.872696,295.078583 235.054092,290.443756 
	C231.686752,287.204865 229.626114,283.322571 232.445053,278.468079 
	C232.993713,277.523254 232.833344,276.166656 233.000000,275.000000 
"/>
<path fill="none" opacity="1.000000" stroke="#000000" stroke-linecap="round" stroke-linejoin="round" stroke-width="2.000000"
	d="
M177.500000,310.500000 
	C173.187790,305.668365 169.980988,305.056427 165.041748,308.558868 
	C163.248550,309.830444 161.200867,310.506775 159.438095,311.922943 
	C151.219803,318.525391 151.294510,316.899902 154.048401,328.488495 
	C155.963699,336.548218 158.843292,344.404419 160.365311,352.525238 
	C162.098526,361.772949 160.436279,371.169189 160.044678,380.501862 
	C159.877625,384.483337 159.371338,388.321686 162.351944,392.116302 
	C166.386719,397.252930 168.648727,403.608856 172.355850,409.097351 
	C174.152206,411.756927 176.484558,413.693176 178.569809,415.935059 
	C179.774841,417.230591 181.722473,417.441925 183.500000,416.500000 
"/>
<path fill="none" opacity="1.000000" stroke="#000000" stroke-linecap="round" stroke-linejoin="round" stroke-width="2.000000"
	d="
M355.500000,221.500000 
	C359.263763,223.444931 363.605957,222.834686 367.553406,224.362000 
	C370.773224,225.607819 372.029205,226.513199 371.666443,230.515091 
	C369.879669,250.224884 366.458344,269.643921 362.605042,289.020874 
	C362.153015,291.293945 361.734680,293.679138 361.584900,296.005463 
	C361.393799,298.972870 360.603394,299.871735 357.474915,299.101898 
	C354.254547,298.309509 350.833344,298.333344 347.500000,298.000000 
"/>
<path fill="none" opacity="1.000000" stroke="#000000" stroke-linecap="round" stroke-linejoin="round" stroke-width="2.000000"
	d="
M160.500000,390.500000 
	C161.552704,405.206085 163.484955,419.769653 167.496826,434.000885 
	C169.695023,441.798523 170.517334,444.039825 179.993774,443.406769 
	C190.197769,442.725098 200.433136,441.533905 208.962601,434.951538 
	C209.824905,434.286102 210.166672,435.472778 210.750000,435.000000 
"/>
<path fill="none" opacity="1.000000" stroke="#000000" stroke-linecap="round" stroke-linejoin="round" stroke-width="2.000000"
	d="
M376.000000,418.500000 
	C377.455933,424.333344 375.518433,430.145691 375.929199,436.004974 
	C376.530670,444.585480 377.300720,444.039734 383.999420,444.085541 
	C395.665039,444.165222 407.340759,442.934113 419.009033,444.429565 
	C422.302826,444.851685 425.154968,445.245972 427.085510,448.448456 
	C428.021912,450.001801 429.636261,452.069366 431.962219,450.445862 
	C433.997223,449.025513 433.923828,447.271667 432.722076,444.888031 
	C432.175568,443.804077 431.019287,442.180908 431.500000,440.500000 
"/>
<path fill="none" opacity="1.000000" stroke="#000000" stroke-linecap="round" stroke-linejoin="round" stroke-width="2.000000"
	d="
M390.500000,62.500000 
	C392.063049,69.874084 388.949585,76.813385 388.281158,83.979591 
	C387.046448,97.217636 384.401733,110.319374 382.528229,123.504013 
	C380.730957,136.152115 378.381989,148.794067 377.745361,161.512283 
	C377.224976,171.907730 376.510193,182.221252 375.000000,192.500000 
"/>
<path fill="none" opacity="1.000000" stroke="#000000" stroke-linecap="round" stroke-linejoin="round" stroke-width="2.000000"
	d="
M344.000000,401.000000 
	C343.875885,413.547272 343.126038,426.068726 341.408844,438.487396 
	C340.516510,444.940948 340.044006,444.535431 334.500763,444.450897 
	C332.329498,444.417755 330.175781,443.731201 327.996735,443.536652 
	C326.591705,443.411255 325.446808,442.676788 325.579681,441.509064 
	C326.035156,437.506134 323.450073,433.400696 326.000000,429.500000 
"/>
<path fill="none" opacity="1.000000" stroke="#000000" stroke-linecap="round" stroke-linejoin="round" stroke-width="2.000000"
	d="
M304.500000,209.000000 
	C305.729584,205.859268 303.463409,203.518005 302.413818,201.036453 
	C299.936890,195.180374 297.627625,189.158844 293.140625,184.088623 
	C290.414764,186.911102 288.012421,189.511642 285.488617,191.988419 
	C280.129089,197.248001 277.044220,196.723846 273.508698,189.995422 
	C272.122162,187.356720 270.614471,184.748489 269.576233,181.971497 
	C268.873169,180.091141 267.848785,178.984528 266.059937,178.331970 
	C263.033203,179.126511 262.181763,182.502960 259.500000,183.500000 
"/>
<path fill="none" opacity="1.000000" stroke="#000000" stroke-linecap="round" stroke-linejoin="round" stroke-width="2.000000"
	d="
M248.500000,268.500000 
	C252.277786,274.979156 256.510101,281.429474 263.567505,284.336121 
	C272.382233,287.966553 283.423584,284.532166 288.641968,274.070831 
	C290.174774,270.997986 290.722290,266.724854 294.998749,265.495605 
	C296.340179,265.110016 297.179077,264.427765 299.077972,265.337189 
	C312.933197,271.972839 327.086761,277.984070 340.962555,284.578796 
	C347.662292,287.763031 348.795990,291.182800 346.424896,298.475586 
	C345.615448,300.965179 345.090240,303.480347 344.419434,305.978363 
	C343.068329,311.009399 342.267792,311.176331 337.500000,308.500000 
"/>
<path fill="none" opacity="1.000000" stroke="#000000" stroke-linecap="round" stroke-linejoin="round" stroke-width="2.000000"
	d="
M229.500000,275.500000 
	C224.215622,275.735168 220.333588,279.226135 216.047699,281.586609 
	C206.812912,286.672607 198.529297,293.188843 190.511139,300.013092 
	C187.572067,302.514557 185.179749,305.491669 183.268524,308.903198 
	C184.739365,312.936066 190.139481,314.167664 190.011185,318.994293 
	C183.468216,318.644623 177.678223,321.720154 171.500000,323.000000 
"/>
<path fill="none" opacity="1.000000" stroke="#000000" stroke-linecap="round" stroke-linejoin="round" stroke-width="2.000000"
	d="
M307.000000,212.500015 
	C308.664276,211.826538 310.328552,211.153061 311.995056,210.478683 
	C314.736542,212.552689 314.245667,216.209045 313.273834,217.867477 
	C310.229614,223.062698 310.430786,228.490173 310.553711,233.998795 
	C310.606262,236.352798 309.911835,238.248383 308.501221,240.002502 
	C306.222839,239.471924 306.307770,237.666397 306.526215,236.003448 
	C307.512482,228.495560 305.947662,221.025635 306.167236,213.490311 
	C306.297211,209.030273 301.996613,205.406464 297.490295,203.523239 
	C281.978455,197.040756 266.326904,195.345047 250.492950,202.484375 
	C250.215942,202.609283 249.833328,202.500000 249.500000,202.500000 
"/>
<path fill="none" opacity="1.000000" stroke="#000000" stroke-linecap="round" stroke-linejoin="round" stroke-width="2.000000"
	d="
M310.500000,193.500000 
	C300.787628,183.138763 289.382172,175.892532 275.002777,173.979095 
	C269.121887,173.196548 263.353882,173.465652 257.487030,174.420258 
	C248.825027,175.829681 240.965164,178.839493 233.445038,183.409576 
	C222.760391,189.902756 221.522934,196.260971 223.019562,209.497787 
	C223.209839,211.180634 223.611511,212.847214 224.025818,214.493500 
	C224.203537,215.199631 224.664230,215.834518 225.102570,216.715210 
	C230.020233,216.774902 232.517685,212.214462 236.500000,210.500000 
"/>
<path fill="none" opacity="1.000000" stroke="#000000" stroke-linecap="round" stroke-linejoin="round" stroke-width="2.000000"
	d="
M354.500000,222.000000 
	C351.503754,221.836151 351.695496,224.429688 351.582916,226.005920 
	C350.355774,243.181656 346.729492,260.172058 347.533600,277.498444 
	C347.596008,278.843628 346.668732,280.166656 347.500000,281.500000 
"/>
<path fill="none" opacity="1.000000" stroke="#000000" stroke-linecap="round" stroke-linejoin="round" stroke-width="2.000000"
	d="
M212.000000,432.000000 
	C208.859772,421.874084 205.727890,411.734924 201.452362,402.020966 
	C199.263412,397.047699 197.972946,391.571472 194.150955,387.260315 
	C192.399918,389.023315 193.114548,390.778107 193.500000,392.500000 
"/>
<path fill="none" opacity="1.000000" stroke="#000000" stroke-linecap="round" stroke-linejoin="round" stroke-width="2.000000"
	d="
M378.000000,147.500000 
	C376.500000,147.166672 375.015717,146.688614 373.497406,146.523773 
	C364.461945,145.542786 363.639618,146.401794 362.449158,155.493347 
	C361.359070,163.818481 361.210052,172.450943 359.127045,180.402298 
	C356.789398,189.325562 357.718628,198.188049 356.547546,207.006317 
	C355.334015,216.144623 354.557281,225.340027 353.485962,234.498352 
	C352.042480,246.838303 350.499969,259.166656 348.999969,271.500000 
"/>
<path fill="none" opacity="1.000000" stroke="#000000" stroke-linecap="round" stroke-linejoin="round" stroke-width="2.000000"
	d="
M331.500000,296.500000 
	C333.500000,298.333344 335.335114,300.401520 337.537018,301.947296 
	C341.231842,304.541107 341.410034,308.097839 341.007751,312.000793 
	C340.149109,320.331543 339.506500,328.688995 338.435608,336.991699 
	C337.784912,342.036743 336.984131,347.163452 335.366486,351.954926 
	C333.683899,356.938995 332.729279,362.212067 329.180603,366.644592 
	C327.329987,368.956177 327.422607,372.767853 328.500000,376.000000 
"/>
<path fill="none" opacity="1.000000" stroke="#000000" stroke-linecap="round" stroke-linejoin="round" stroke-width="2.000000"
	d="
M294.500000,266.500000 
	C291.875580,276.839844 288.001740,286.105072 277.035583,290.587097 
	C270.420776,293.290619 265.764893,289.252350 260.510651,286.975403 
	C259.766968,286.653137 259.166656,286.000000 258.500000,285.500000 
"/>
<path fill="none" opacity="1.000000" stroke="#000000" stroke-linecap="round" stroke-linejoin="round" stroke-width="2.000000"
	d="
M194.000000,393.500000 
	C199.152451,403.954193 202.585510,415.069977 206.492157,426.002808 
	C207.378693,428.483795 208.166672,431.000000 209.000000,433.500000 
"/>
<path fill="none" opacity="1.000000" stroke="#000000" stroke-linecap="round" stroke-linejoin="round" stroke-width="2.000000"
	d="
M358.500000,300.000000 
	C358.173431,310.339783 355.820343,320.383820 353.954529,330.491608 
	C353.274719,334.174286 353.557800,337.828369 353.500000,341.500000 
"/>
<path fill="none" opacity="1.000000" stroke="#000000" stroke-linecap="round" stroke-linejoin="round" stroke-width="2.000000"
	d="
M373.000000,315.500000 
	C374.088165,326.075623 373.453461,336.541443 371.625275,347.021851 
	C371.029846,350.435303 369.977509,350.796814 366.983368,350.068420 
	C361.846161,348.818634 356.494110,348.187988 354.000000,342.500000 
"/>
<path fill="none" opacity="1.000000" stroke="#000000" stroke-linecap="round" stroke-linejoin="round" stroke-width="2.000000"
	d="
M230.000000,228.000000 
	C226.835922,226.143738 227.692703,221.020508 223.552063,219.859436 
	C222.010345,224.021774 222.010345,224.021774 230.730881,237.352936 
	C233.160706,234.166672 230.142288,231.333328 230.500000,228.500000 
"/>
<path fill="none" opacity="1.000000" stroke="#000000" stroke-linecap="round" stroke-linejoin="round" stroke-width="2.000000"
	d="
M372.000000,315.500000 
	C368.884827,324.745880 368.115967,334.403809 367.006409,344.000732 
	C366.795044,345.828918 366.666656,347.666656 366.500000,349.500000 
"/>
<path fill="none" opacity="1.000000" stroke="#000000" stroke-linecap="round" stroke-linejoin="round" stroke-width="2.000000"
	d="
M200.500000,307.500000 
	C198.637695,313.116791 199.445328,318.806335 199.984848,324.501434 
	C200.394669,328.827545 200.657166,333.167419 201.007004,337.499420 
	C201.089569,338.521881 200.986160,339.427795 199.733139,340.106201 
	C197.437531,338.306519 197.633286,334.642883 195.000000,333.000000 
"/>
<path fill="none" opacity="1.000000" stroke="#000000" stroke-linecap="round" stroke-linejoin="round" stroke-width="2.000000"
	d="
M330.000000,396.500000 
	C327.543457,401.229462 328.389069,406.517670 327.638489,411.520782 
	C326.852295,416.761169 327.166656,422.166656 327.000000,427.500000 
"/>
<path fill="none" opacity="1.000000" stroke="#000000" stroke-linecap="round" stroke-linejoin="round" stroke-width="2.000000"
	d="
M336.500000,357.000000 
	C340.658539,356.629852 344.864868,357.511566 349.003693,356.515350 
	C349.476318,356.401581 350.028748,356.392151 350.495575,356.516571 
	C355.700012,357.903473 362.465515,367.134491 362.477417,373.000061 
	C362.484863,376.648499 362.315674,380.289093 364.500000,383.500000 
"/>
<path fill="none" opacity="1.000000" stroke="#000000" stroke-linecap="round" stroke-linejoin="round" stroke-width="3.000000"
	d="
M374.500000,193.500000 
	C372.577179,200.198288 372.768677,207.203812 371.529327,214.005341 
	C371.018921,216.806412 370.833344,219.666672 370.500000,222.500000 
"/>
<path fill="none" opacity="1.000000" stroke="#000000" stroke-linecap="round" stroke-linejoin="round" stroke-width="2.000000"
	d="
M370.500000,390.500000 
	C373.825378,395.915192 371.082977,403.765167 366.975739,404.320709 
	C363.932404,404.732361 360.599060,403.758453 357.512726,402.951324 
	C348.476898,400.588348 339.500000,398.000031 330.500000,395.500031 
"/>
<path fill="none" opacity="1.000000" stroke="#000000" stroke-linecap="round" stroke-linejoin="round" stroke-width="2.000000"
	d="
M375.000000,396.000000 
	C373.240082,409.165924 364.062317,410.144714 354.503052,404.494843 
	C353.787445,404.071899 353.115448,403.575226 352.394928,403.093933 
	C351.516022,404.049896 350.526550,404.588379 351.883728,406.579254 
	C355.930786,412.515900 361.314423,416.730499 367.531158,419.939667 
	C370.835205,421.645264 374.607635,420.869781 375.837006,417.441559 
	C378.336945,410.470337 379.842072,403.166656 376.000000,396.000000 
"/>
<path fill="none" opacity="1.000000" stroke="#000000" stroke-linecap="round" stroke-linejoin="round" stroke-width="2.000000"
	d="
M181.000000,353.500000 
	C183.847748,365.005005 186.949524,376.422791 192.500000,387.000000 
"/>
<path fill="none" opacity="1.000000" stroke="#000000" stroke-linecap="round" stroke-linejoin="round" stroke-width="2.000000"
	d="
M306.000000,239.500000 
	C303.692413,248.159790 299.277344,256.018738 296.500000,264.500000 
"/>
<path fill="none" opacity="1.000000" stroke="#000000" stroke-linecap="round" stroke-linejoin="round" stroke-width="2.000000"
	d="
M344.500000,389.500000 
	C340.666656,388.333313 336.744995,387.386597 333.040802,385.898438 
	C331.419159,385.246948 329.570343,384.362762 328.628418,385.597931 
	C327.327332,387.304138 327.036072,389.800354 327.598206,391.974609 
	C327.852356,392.957703 329.166656,393.666656 330.000000,394.500000 
"/>
<path fill="none" opacity="1.000000" stroke="#000000" stroke-linecap="round" stroke-linejoin="round" stroke-width="2.000000"
	d="
M226.000000,190.500000 
	C228.177368,196.313324 227.406479,202.532623 228.444534,208.509628 
	C228.802673,210.571701 228.347595,212.788101 230.000000,214.500000 
"/>
<path fill="none" opacity="1.000000" stroke="#000000" stroke-linecap="round" stroke-linejoin="round" stroke-width="2.000000"
	d="
M232.500000,237.000000 
	C236.166672,244.833328 239.833328,252.666672 243.500000,260.500000 
"/>
<path fill="none" opacity="1.000000" stroke="#000000" stroke-linecap="round" stroke-linejoin="round" stroke-width="2.000000"
	d="
M366.500000,350.500000 
	C366.500000,354.333344 366.607635,358.170471 366.471680,361.998993 
	C366.315491,366.397186 367.339996,370.302032 370.500000,373.500000 
"/>
<path fill="none" opacity="1.000000" stroke="#000000" stroke-linecap="round" stroke-linejoin="round" stroke-width="2.000000"
	d="
M247.500000,273.500000 
	C247.309525,271.764893 244.447784,271.699310 245.844498,269.006836 
	C237.770630,271.130859 231.299713,274.282043 226.023560,279.523712 
	C220.087814,285.420624 214.333328,291.500000 208.500000,297.500000 
"/>
<path fill="none" opacity="1.000000" stroke="#000000" stroke-linecap="round" stroke-linejoin="round" stroke-width="2.000000"
	d="
M186.000000,339.500000 
	C184.895355,345.641327 185.781815,351.836182 185.511780,358.000519 
	C185.451370,359.379639 185.842346,361.007202 183.500000,360.500000 
"/>
<path fill="none" opacity="1.000000" stroke="#000000" stroke-linecap="round" stroke-linejoin="round" stroke-width="2.000000"
	d="
M251.500000,191.500000 
	C245.501999,195.766632 241.676529,202.505478 235.028885,206.050537 
	C232.647400,203.937637 235.620636,202.359451 235.500000,200.500000 
"/>
<path fill="none" opacity="1.000000" stroke="#000000" stroke-linecap="round" stroke-linejoin="round" stroke-width="2.000000"
	d="
M193.000000,393.500000 
	C190.757156,400.591827 190.036758,408.227417 185.500000,414.500000 
"/>
<path fill="none" opacity="1.000000" stroke="#000000" stroke-linecap="round" stroke-linejoin="round" stroke-width="2.000000"
	d="
M376.000000,167.500000 
	C375.166687,172.500000 374.019409,177.474014 373.602692,182.508499 
	C373.288391,186.305527 370.406128,185.900574 368.504669,185.843796 
	C365.320953,185.748734 362.166656,184.666672 359.000000,184.000000 
"/>
<path fill="none" opacity="1.000000" stroke="#000000" stroke-linecap="round" stroke-linejoin="round" stroke-width="2.000000"
	d="
M332.500000,357.000000 
	C329.347717,352.936890 327.068237,353.443451 323.356171,359.223969 
	C324.822601,362.179199 327.475403,363.806488 330.500000,365.000000 
"/>
<path fill="none" opacity="1.000000" stroke="#000000" stroke-linecap="round" stroke-linejoin="round" stroke-width="2.000000"
	d="
M402.500000,415.500000 
	C409.268646,418.810760 415.833160,422.444733 421.500000,427.500000 
"/>
<path fill="none" opacity="1.000000" stroke="#000000" stroke-linecap="round" stroke-linejoin="round" stroke-width="4.000000"
	d="
M327.500000,385.000000 
	C325.469055,382.449860 326.659485,379.698364 326.987549,376.490723 
	C334.136719,376.389709 340.784149,378.645203 347.500000,380.500000 
"/>
<path fill="none" opacity="1.000000" stroke="#000000" stroke-linecap="round" stroke-linejoin="round" stroke-width="2.000000"
	d="
M190.500000,319.500000 
	C191.636780,324.839874 194.260010,329.775543 194.096405,335.502747 
	C193.953522,340.505066 193.071152,342.179962 187.599365,343.604279 
	C187.465897,341.455811 187.666138,339.166840 186.000000,337.500000 
"/>
<path fill="none" opacity="1.000000" stroke="#000000" stroke-linecap="round" stroke-linejoin="round" stroke-width="3.000000"
	d="
M349.500000,368.000000 
	C343.727051,367.602234 338.037933,366.729553 332.500000,365.000000 
"/>
<path fill="none" opacity="1.000000" stroke="#000000" stroke-linecap="round" stroke-linejoin="round" stroke-width="2.000000"
	d="
M311.000000,194.500000 
	C312.711761,200.493042 309.700012,205.627274 308.000000,211.000000 
"/>
<path fill="none" opacity="1.000000" stroke="#000000" stroke-linecap="round" stroke-linejoin="round" stroke-width="2.000000"
	d="
M386.500000,396.500000 
	C392.455811,399.261261 397.176453,403.819122 402.500000,407.500000 
"/>
<path fill="none" opacity="1.000000" stroke="#000000" stroke-linecap="round" stroke-linejoin="round" stroke-width="4.000000"
	d="
M185.500000,318.500000 
	C185.198685,316.285553 184.058899,314.579498 182.531311,312.970276 
	C180.528885,310.860840 178.784164,310.392883 175.942215,311.890320 
	C171.664001,314.144592 166.999985,315.666656 162.499985,317.499969 
"/>
<path fill="none" opacity="1.000000" stroke="#000000" stroke-linecap="round" stroke-linejoin="round" stroke-width="3.000000"
	d="
M358.500000,191.000000 
	C362.333344,191.000000 366.171448,191.110245 369.997559,190.944061 
	C371.465973,190.880295 372.280548,191.438919 373.000000,192.500000 
"/>
<path fill="none" opacity="1.000000" stroke="#000000" stroke-linecap="round" stroke-linejoin="round" stroke-width="5.000000"
	d="
M192.000000,327.500000 
	C187.480225,329.965668 182.337296,329.849762 177.500000,331.000000 
"/>
<path fill="none" opacity="1.000000" stroke="#000000" stroke-linecap="round" stroke-linejoin="round" stroke-width="2.000000"
	d="
M352.500000,342.000000 
	C351.333313,346.666656 350.166656,351.333344 349.000000,356.000000 
"/>
<path fill="none" opacity="1.000000" stroke="#000000" stroke-linecap="round" stroke-linejoin="round" stroke-width="2.000000"
	d="
M412.500000,415.500000 
	C417.098236,418.527069 420.942169,422.626038 426.000000,425.000000 
"/>
<path fill="none" opacity="1.000000" stroke="#000000" stroke-linecap="round" stroke-linejoin="round" stroke-width="2.000000"
	d="
M229.000000,216.500000 
	C230.694778,220.177490 230.572510,224.091995 230.500000,228.000000 
"/>
<path fill="none" opacity="1.000000" stroke="#000000" stroke-linecap="round" stroke-linejoin="round" stroke-width="2.000000"
	d="
M327.000000,429.500000 
	C330.666656,433.657532 334.333344,430.248596 338.000000,429.500000 
"/>
<path fill="none" opacity="1.000000" stroke="#000000" stroke-linecap="round" stroke-linejoin="round" stroke-width="2.000000"
	d="
M378.000000,397.500000 
	C379.889557,396.463196 378.409180,394.303070 379.685333,392.175995 
	C387.310120,394.798279 388.168732,403.308350 393.500000,407.500000 
"/>
<path fill="none" opacity="1.000000" stroke="#000000" stroke-linecap="round" stroke-linejoin="round" stroke-width="2.000000"
	d="
M326.500000,428.500000 
	C330.088531,426.614655 333.801605,427.468811 337.500000,428.000000 
"/>
<path fill="none" opacity="1.000000" stroke="#000000" stroke-linecap="round" stroke-linejoin="round" stroke-width="2.000000"
	d="
M309.500000,281.500000 
	C309.881683,282.255402 309.721283,283.334808 310.997620,283.516663 
	C315.521851,284.161407 318.846313,287.155670 322.500000,289.500000 
"/>
<path fill="none" opacity="1.000000" stroke="#000000" stroke-linecap="round" stroke-linejoin="round" stroke-width="2.000000"
	d="
M312.000000,284.500000 
	C313.960022,288.324799 317.303070,290.843384 320.500000,293.500000 
"/>
<path fill="none" opacity="1.000000" stroke="#000000" stroke-linecap="round" stroke-linejoin="round" stroke-width="2.000000"
	d="
M254.000000,176.000000 
	C251.833328,178.500000 249.666672,181.000000 247.500000,183.500000 
"/>
<path fill="none" opacity="1.000000" stroke="#000000" stroke-linecap="round" stroke-linejoin="round" stroke-width="2.000000"
	d="
M378.500000,385.500000 
	C378.830383,388.120331 382.448090,389.331757 381.500000,392.500000 
"/>
</svg>