<svg width="25" height="25" viewBox="0 0 25 25" fill="none" xmlns="http://www.w3.org/2000/svg">
<path d="M18.5058 17.1103C17.1969 18.5368 15.5377 20.2372 13.5265 22.2122C13.5264 22.2123 13.5262 22.2124 13.5261 22.2126L12.1407 23.5664L10.7552 22.2126C10.755 22.2124 10.7548 22.2122 10.7546 22.212C8.74353 20.2371 7.08436 18.5368 5.77554 17.1103C4.46899 15.6863 3.43829 14.4171 2.67796 13.3015C1.91745 12.1857 1.39981 11.1798 1.10955 10.2817C0.816281 9.37434 0.669922 8.44768 0.669922 7.49989C0.669922 5.56752 1.26014 3.98515 2.42374 2.71693C3.58503 1.45121 5.01709 0.823975 6.75383 0.823975C7.7111 0.823975 8.62094 1.04391 9.48936 1.48695C10.3589 1.93055 11.1108 2.55635 11.7464 3.37136L12.1407 3.87692L12.5349 3.37136C13.1705 2.55635 13.9225 1.93055 14.792 1.48695C15.6604 1.04391 16.5702 0.823975 17.5275 0.823975C19.2642 0.823975 20.6963 1.45121 21.8576 2.71693C23.0212 3.98515 23.6114 5.56752 23.6114 7.49989C23.6114 8.44768 23.465 9.37434 23.1718 10.2817C22.8815 11.1798 22.3639 12.1857 21.6033 13.3015C20.843 14.4171 19.8123 15.6863 18.5058 17.1103Z" stroke="black"/>
</svg>
